<?xml version="1.0" standalone="no"?>
<!DOCTYPE svg PUBLIC "-//W3C//DTD SVG 20010904//EN"
 "http://www.w3.org/TR/2001/REC-SVG-20010904/DTD/svg10.dtd">
<svg version="1.0" xmlns="http://www.w3.org/2000/svg"
 width="247.000000pt" height="245.000000pt" viewBox="0 0 247.000000 245.000000"
 preserveAspectRatio="xMidYMid meet">

<g transform="translate(0.000000,245.000000) scale(0.100000,-0.100000)"
fill="#000000" stroke="none">
<path d="M1101 2230 c-135 -49 -220 -125 -278 -247 -115 -240 10 -535 265
-624 164 -58 333 -22 463 98 108 100 156 221 146 371 -10 164 -106 302 -263
378 -73 35 -87 39 -179 41 -81 3 -110 0 -154 -17z m224 -95 c70 -18 152 -70
189 -117 53 -71 77 -141 77 -229 0 -68 -5 -91 -29 -143 -35 -74 -94 -136 -164
-173 -48 -25 -62 -28 -158 -28 -96 0 -110 3 -158 28 -71 37 -129 99 -164 174
-25 53 -30 75 -30 144 0 74 4 89 36 155 52 104 119 159 228 188 70 19 102 19
173 1z"/>
<path d="M780 1300 c-105 -19 -225 -85 -300 -166 -57 -61 -82 -103 -117 -190
-27 -68 -27 -73 -28 -294 l0 -225 33 -67 c38 -78 82 -120 168 -160 l61 -29
654 3 654 3 50 27 c97 51 165 141 184 243 13 71 14 293 1 393 -14 109 -65 216
-144 301 -74 79 -214 151 -322 165 -49 6 -53 5 -100 -35 -97 -81 -204 -119
-334 -119 -127 0 -231 36 -321 111 -53 44 -76 50 -139 39z m87 -136 c213 -162
534 -162 747 1 l49 37 60 -18 c123 -37 223 -124 281 -244 l31 -65 3 -212 c3
-206 3 -215 -20 -259 -12 -26 -39 -60 -58 -76 -70 -57 -78 -58 -720 -58 -668
0 -660 -1 -735 75 -62 62 -67 87 -63 325 l3 205 31 65 c56 117 152 202 272
241 31 10 60 18 64 18 4 1 29 -15 55 -35z"/>
<path d="M1275 938 c-7 -18 -21 -62 -30 -98 -9 -36 -37 -135 -62 -220 -24 -85
-45 -177 -46 -205 -2 -45 0 -50 26 -59 52 -19 53 -16 158 367 17 61 37 131 44
155 21 63 6 92 -48 92 -22 0 -31 -7 -42 -32z"/>
<path d="M882 767 c-45 -45 -82 -91 -82 -101 0 -24 147 -175 177 -183 29 -7
63 21 63 51 0 11 -24 45 -55 76 l-55 56 55 54 c58 58 67 86 37 113 -33 30 -55
19 -140 -66z"/>
<path d="M1456 834 c-27 -27 -18 -54 38 -112 l55 -57 -55 -57 c-30 -31 -54
-66 -54 -77 0 -26 26 -51 53 -51 28 0 187 157 187 184 0 10 -37 56 -82 102
-84 87 -111 100 -142 68z"/>
</g>
</svg>
