<?xml version="1.0" standalone="no"?>
<!DOCTYPE svg PUBLIC "-//W3C//DTD SVG 20010904//EN"
 "http://www.w3.org/TR/2001/REC-SVG-20010904/DTD/svg10.dtd">
<svg version="1.0" xmlns="http://www.w3.org/2000/svg"
 width="100pt" height="100pt" viewBox="0 0 679.000000 713.000000"
 preserveAspectRatio="xMidYMid meet">

<g transform="translate(0.000000,713.000000) scale(0.100000,-0.100000)"
fill="#000000" stroke="none">
<path d="M2215 6994 c-761 -207 -1422 -637 -1892 -1229 -68 -86 -82 -124 -63
-179 18 -56 62 -86 123 -86 65 0 74 8 205 165 440 530 1078 924 1768 1089 95
23 125 54 132 131 4 53 3 56 -36 95 -37 37 -44 40 -93 39 -30 0 -94 -11 -144
-25z"/>
<path d="M2735 6384 c-822 -93 -1563 -512 -2050 -1157 -247 -328 -445 -748
-531 -1127 -91 -407 -98 -862 -18 -1257 54 -266 126 -476 249 -728 87 -178
168 -312 274 -455 58 -79 62 -88 57 -125 -3 -22 -46 -296 -96 -608 -49 -313
-90 -587 -90 -609 0 -48 22 -89 60 -112 55 -32 96 -22 332 83 123 54 354 156
513 226 160 70 319 140 354 156 l63 29 112 -44 c538 -213 1159 -262 1726 -136
688 153 1307 549 1726 1104 304 403 497 862 576 1371 30 190 32 644 5 830
-131 881 -595 1612 -1329 2095 -349 230 -758 384 -1193 450 -187 29 -554 36
-740 14z m745 -283 c1131 -194 1997 -1031 2224 -2151 64 -317 63 -740 -4
-1066 -51 -246 -120 -446 -237 -677 -261 -517 -674 -933 -1183 -1191 -275
-140 -546 -225 -865 -273 -169 -25 -573 -25 -735 0 -242 38 -454 96 -651 178
-68 28 -142 54 -164 56 -42 4 -61 -4 -795 -330 -129 -57 -236 -103 -237 -102
-2 0 36 242 83 536 63 397 83 542 76 564 -5 17 -49 84 -99 150 -278 371 -453
794 -525 1270 -9 61 -13 185 -12 380 0 268 2 301 27 435 70 389 207 733 412
1040 117 176 199 275 355 430 415 415 963 684 1545 760 44 5 94 12 110 14 17
2 147 3 290 1 210 -2 284 -7 385 -24z"/>
<path d="M2705 5397 c-66 -22 -118 -53 -173 -102 -89 -80 -153 -244 -138 -355
12 -86 505 -2239 520 -2268 23 -45 90 -100 138 -113 128 -34 263 47 286 171
10 54 -62 2226 -77 2319 -22 139 -115 261 -248 324 -60 28 -80 32 -168 34 -63
2 -115 -2 -140 -10z"/>
<path d="M3124 2361 c-144 -37 -259 -165 -284 -315 -26 -160 67 -336 216 -405
187 -88 415 -9 506 177 31 62 33 74 33 167 0 88 -3 107 -27 157 -37 79 -108
152 -185 190 -54 26 -78 32 -146 34 -45 2 -96 -1 -113 -5z"/>
<path d="M5673 5890 c-43 -26 -64 -61 -65 -108 0 -50 9 -66 102 -182 411 -508
665 -1144 721 -1809 16 -194 6 -553 -20 -733 -55 -370 -156 -694 -322 -1030
-60 -122 -69 -148 -64 -178 21 -113 158 -154 230 -68 84 100 260 531 335 821
87 339 114 549 114 907 0 355 -35 635 -120 949 -136 499 -400 1003 -722 1378
-64 74 -126 92 -189 53z"/>
</g>
</svg>
